<?xml version="1.0" encoding="UTF-8"?>
<!DOCTYPE svg PUBLIC "-//W3C//DTD SVG 1.1//EN" "http://www.w3.org/Graphics/SVG/1.1/DTD/svg11.dtd">
<svg xmlns="http://www.w3.org/2000/svg" version="1.1" width="3634px" height="980px" style="shape-rendering:geometricPrecision; text-rendering:geometricPrecision; image-rendering:optimizeQuality; fill-rule:evenodd; clip-rule:evenodd" xmlns:xlink="http://www.w3.org/1999/xlink">
<g><path style="opacity:1" fill="#e84234" d="M 1664.5,-0.5 C 1672.17,-0.5 1679.83,-0.5 1687.5,-0.5C 1730.51,9.02345 1753.85,35.8568 1757.5,80C 1756.25,109.508 1743.59,132.508 1719.5,149C 1664.78,180.022 1610.44,211.522 1556.5,243.5C 1512.89,218.69 1469.22,193.857 1425.5,169C 1407.2,161.835 1388.53,160.668 1369.5,165.5C 1369.83,164.833 1370.17,164.167 1370.5,163.5C 1461.78,110.188 1553.44,57.3549 1645.5,5C 1651.83,2.6729 1658.16,0.839566 1664.5,-0.5 Z"/></g>
<g><path style="opacity:1" fill="#0f9c57" d="M 1945.5,-0.5 C 1953.17,-0.5 1960.83,-0.5 1968.5,-0.5C 1974.84,0.839566 1981.17,2.6729 1987.5,5C 2088.99,62.5754 2189.99,120.909 2290.5,180C 2321.2,208.958 2328.03,242.792 2311,281.5C 2302.09,298.243 2288.93,310.243 2271.5,317.5C 2268.6,318.129 2265.94,319.129 2263.5,320.5C 2244.08,325.511 2225.08,324.344 2206.5,317C 2164.67,293.253 2123,269.253 2081.5,245C 2079.98,243.991 2078.31,243.491 2076.5,243.5C 2022.56,211.522 1968.22,180.022 1913.5,149C 1883.11,127.532 1871.28,98.365 1878,61.5C 1887.97,27.0246 1910.47,6.3579 1945.5,-0.5 Z"/></g>
<g><path style="opacity:1" fill="#4184f2" d="M 1556.5,243.5 C 1612.64,275.736 1668.64,308.236 1724.5,341C 1755.37,366.989 1764.21,399.155 1751,437.5C 1735.05,471.405 1708.22,487.905 1670.5,487C 1661.48,486.53 1652.82,484.53 1644.5,481C 1544.17,423.839 1444.17,366.172 1344.5,308C 1314.23,281.747 1305.73,249.581 1319,211.5C 1327.68,192.319 1341.51,178.319 1360.5,169.5C 1363.74,168.537 1366.74,167.204 1369.5,165.5C 1388.53,160.668 1407.2,161.835 1425.5,169C 1469.22,193.857 1512.89,218.69 1556.5,243.5 Z"/></g>
<g><path style="opacity:0.878" fill="#a43733" d="M 1370.5,163.5 C 1370.17,164.167 1369.83,164.833 1369.5,165.5C 1366.74,167.204 1363.74,168.537 1360.5,169.5C 1363.49,167 1366.83,165 1370.5,163.5 Z"/></g>
<g><path style="opacity:1" fill="#f8ba04" d="M 2076.5,243.5 C 2078.31,243.491 2079.98,243.991 2081.5,245C 2123,269.253 2164.67,293.253 2206.5,317C 2225.08,324.344 2244.08,325.511 2263.5,320.5C 2264.34,320.842 2264.67,321.508 2264.5,322.5C 2172.69,375.574 2080.69,428.408 1988.5,481C 1953.91,493.416 1923.41,486.916 1897,461.5C 1872.11,429.945 1869.44,396.612 1889,361.5C 1895.88,351.623 1904.38,343.456 1914.5,337C 1968.69,306.074 2022.69,274.908 2076.5,243.5 Z"/></g>
<g><path style="opacity:0.753" fill="#9a7d0e" d="M 2271.5,317.5 C 2269.38,319.4 2267.05,321.066 2264.5,322.5C 2264.67,321.508 2264.34,320.842 2263.5,320.5C 2265.94,319.129 2268.6,318.129 2271.5,317.5 Z"/></g>
<g><path style="opacity:1" fill="#60676e" d="M 91.5,729.5 C 117.272,726.361 140.939,731.861 162.5,746C 166.846,749.012 170.512,752.679 173.5,757C 168.712,762.79 163.546,768.29 158,773.5C 137.733,753.056 113.567,746.556 85.5,754C 56.7583,763.741 39.925,783.574 35,813.5C 30.9145,852.52 46.7479,879.687 82.5,895C 112.184,904.202 138.018,898.036 160,876.5C 167.942,865.847 172.442,853.847 173.5,840.5C 151.167,840.5 128.833,840.5 106.5,840.5C 106.5,833.5 106.5,826.5 106.5,819.5C 136.167,819.5 165.833,819.5 195.5,819.5C 200.729,867.37 181.063,899.87 136.5,917C 91.4888,928.554 54.9888,916.054 27,879.5C 11.1857,853.606 7.18567,825.94 15,796.5C 27.678,759.311 53.178,736.977 91.5,729.5 Z"/></g>
<g><path style="opacity:1" fill="#60676d" d="M 2138.5,729.5 C 2169.5,725.086 2192.34,736.419 2207,763.5C 2207.78,764.944 2207.61,766.277 2206.5,767.5C 2200.39,770.304 2194.22,772.971 2188,775.5C 2174.8,751.323 2155.63,745.156 2130.5,757C 2118.24,765.779 2115.41,776.946 2122,790.5C 2127.54,796.357 2134.04,800.857 2141.5,804C 2160.02,809.166 2177.35,816.832 2193.5,827C 2209.16,838.945 2215.66,854.778 2213,874.5C 2207.68,900.479 2191.85,915.646 2165.5,920C 2130.79,924.397 2105.95,910.897 2091,879.5C 2089.65,876.28 2088.81,872.947 2088.5,869.5C 2095.62,867.236 2102.62,864.57 2109.5,861.5C 2119.8,892.988 2140.8,904.155 2172.5,895C 2189.84,884.982 2194.34,870.816 2186,852.5C 2179.3,844.895 2171.13,839.395 2161.5,836C 2147.05,831.44 2133.05,825.773 2119.5,819C 2100.38,808.033 2092.55,791.533 2096,769.5C 2102.27,747.725 2116.44,734.392 2138.5,729.5 Z"/></g>
<g><path style="opacity:1" fill="#60676d" d="M 3089.5,729.5 C 3122.32,725.102 3149.66,735.102 3171.5,759.5C 3166.5,765.167 3161.17,770.5 3155.5,775.5C 3137.14,754.325 3114.14,746.825 3086.5,753C 3051.33,763.978 3033.33,787.978 3032.5,825C 3033.27,862.584 3051.6,886.584 3087.5,897C 3116.9,902.702 3141.23,894.202 3160.5,871.5C 3165.82,876.318 3170.99,881.318 3176,886.5C 3176.32,887.908 3175.98,889.241 3175,890.5C 3143.85,920.665 3107.69,928.499 3066.5,914C 3028.93,896.394 3009.93,866.728 3009.5,825C 3009.93,783.272 3028.93,753.606 3066.5,736C 3074.09,733.074 3081.76,730.907 3089.5,729.5 Z"/></g>
<g><path style="opacity:1" fill="#5f656c" d="M 654.5,733.5 C 662.167,733.5 669.833,733.5 677.5,733.5C 677.5,794.5 677.5,855.5 677.5,916.5C 669.833,916.5 662.167,916.5 654.5,916.5C 654.5,855.5 654.5,794.5 654.5,733.5 Z"/></g>
<g><path style="opacity:1" fill="#626970" d="M 903.5,733.5 C 927.502,733.333 951.502,733.5 975.5,734C 1016.56,740.39 1041.39,763.89 1050,804.5C 1055.63,835.058 1049.29,862.725 1031,887.5C 1016.04,903.731 997.54,913.231 975.5,916C 951.502,916.5 927.502,916.667 903.5,916.5C 903.5,855.5 903.5,794.5 903.5,733.5 Z M 925.5,754.5 C 943.235,754.073 960.902,754.906 978.5,757C 1012.39,766.703 1029.05,789.37 1028.5,825C 1027.16,870.339 1003.83,893.672 958.5,895C 947.505,895.5 936.505,895.667 925.5,895.5C 925.5,848.5 925.5,801.5 925.5,754.5 Z"/></g>
<g><path style="opacity:1" fill="#5f656c" d="M 1475.5,733.5 C 1483.17,733.5 1490.83,733.5 1498.5,733.5C 1498.5,794.5 1498.5,855.5 1498.5,916.5C 1490.83,916.5 1483.17,916.5 1475.5,916.5C 1475.5,855.5 1475.5,794.5 1475.5,733.5 Z"/></g>
<g><path style="opacity:1" fill="#60676e" d="M 2555.5,916.5 C 2555.67,910.158 2555.5,903.825 2555,897.5C 2554.28,898.044 2553.78,898.711 2553.5,899.5C 2546.94,909.203 2537.94,915.703 2526.5,919C 2488.77,924.94 2463.94,909.773 2452,873.5C 2444.99,843.884 2452.49,818.717 2474.5,798C 2490.22,786.723 2507.55,783.39 2526.5,788C 2537.89,791.398 2547.06,797.898 2554,807.5C 2553.67,782.846 2553.5,758.179 2553.5,733.5C 2561.17,733.5 2568.83,733.5 2576.5,733.5C 2576.5,794.5 2576.5,855.5 2576.5,916.5C 2569.5,916.5 2562.5,916.5 2555.5,916.5 Z M 2505.5,807.5 C 2531.64,805.493 2547.81,817.159 2554,842.5C 2557.69,862.754 2551.86,879.587 2536.5,893C 2514.35,904.866 2495.52,901.033 2480,881.5C 2470,862.833 2470,844.167 2480,825.5C 2486.49,816.492 2494.99,810.492 2505.5,807.5 Z"/></g>
<g><path style="opacity:1" fill="#5f656c" d="M 3196.5,733.5 C 3204.17,733.5 3211.83,733.5 3219.5,733.5C 3219.5,794.5 3219.5,855.5 3219.5,916.5C 3211.83,916.5 3204.17,916.5 3196.5,916.5C 3196.5,855.5 3196.5,794.5 3196.5,733.5 Z"/></g>
<g><path style="opacity:1" fill="#60676d" d="M 3385.5,733.5 C 3393.17,733.5 3400.83,733.5 3408.5,733.5C 3408.6,758.192 3408.43,782.859 3408,807.5C 3422.23,789.657 3440.73,782.824 3463.5,787C 3490.9,795.07 3507.07,813.237 3512,841.5C 3515.96,870.642 3506.46,894.142 3483.5,912C 3465.46,921.771 3446.79,923.104 3427.5,916C 3419.11,912.275 3412.61,906.441 3408,898.5C 3407.5,904.491 3407.33,910.491 3407.5,916.5C 3400.17,916.5 3392.83,916.5 3385.5,916.5C 3385.5,855.5 3385.5,794.5 3385.5,733.5 Z M 3440.5,807.5 C 3466.48,805.573 3482.65,817.239 3489,842.5C 3492.68,862.121 3487.18,878.621 3472.5,892C 3456.51,901.962 3440.51,901.962 3424.5,892C 3407.91,875.418 3403.41,855.918 3411,833.5C 3416.7,819.957 3426.53,811.29 3440.5,807.5 Z"/></g>
<g><path style="opacity:1" fill="#626970" d="M 2296.5,897.5 C 2297.49,904.313 2297.82,911.313 2297.5,918.5C 2287.24,920.966 2276.9,921.132 2266.5,919C 2254.3,914.765 2247.13,906.265 2245,893.5C 2244.5,865.835 2244.33,838.169 2244.5,810.5C 2236.83,810.5 2229.17,810.5 2221.5,810.5C 2221.5,803.833 2221.5,797.167 2221.5,790.5C 2229.17,790.5 2236.83,790.5 2244.5,790.5C 2244.5,777.833 2244.5,765.167 2244.5,752.5C 2251.83,752.5 2259.17,752.5 2266.5,752.5C 2266.5,765.167 2266.5,777.833 2266.5,790.5C 2276.83,790.5 2287.17,790.5 2297.5,790.5C 2297.5,797.167 2297.5,803.833 2297.5,810.5C 2287.17,810.5 2276.83,810.5 2266.5,810.5C 2266.05,836.543 2266.55,862.543 2268,888.5C 2272.56,898.855 2280.39,902.355 2291.5,899C 2293.15,898.392 2294.82,897.892 2296.5,897.5 Z"/></g>
<g><path style="opacity:1" fill="#626970" d="M 2939.5,897.5 C 2940.49,904.313 2940.82,911.313 2940.5,918.5C 2930.24,920.966 2919.9,921.132 2909.5,919C 2897.3,914.765 2890.13,906.265 2888,893.5C 2887.5,865.835 2887.33,838.169 2887.5,810.5C 2879.83,810.5 2872.17,810.5 2864.5,810.5C 2864.5,803.833 2864.5,797.167 2864.5,790.5C 2872.17,790.5 2879.83,790.5 2887.5,790.5C 2887.5,777.833 2887.5,765.167 2887.5,752.5C 2894.83,752.5 2902.17,752.5 2909.5,752.5C 2909.5,765.167 2909.5,777.833 2909.5,790.5C 2919.83,790.5 2930.17,790.5 2940.5,790.5C 2940.5,797.167 2940.5,803.833 2940.5,810.5C 2930.17,810.5 2919.83,810.5 2909.5,810.5C 2909.05,836.543 2909.55,862.543 2911,888.5C 2915.56,898.855 2923.39,902.355 2934.5,899C 2936.15,898.392 2937.82,897.892 2939.5,897.5 Z"/></g>
<g><path style="opacity:1" fill="#60676e" d="M 264.5,786.5 C 293.73,782.544 316.563,792.544 333,816.5C 345.667,841.167 345.667,865.833 333,890.5C 316.576,914.616 293.743,924.45 264.5,920C 230.03,911.352 212.364,889.185 211.5,853.5C 212.559,817.797 230.226,795.464 264.5,786.5 Z M 268.5,807.5 C 295.975,805.492 312.808,817.825 319,844.5C 322.637,872.102 311.47,890.269 285.5,899C 257.607,901.445 240.773,888.945 235,861.5C 232.262,834.606 243.429,816.606 268.5,807.5 Z"/></g>
<g><path style="opacity:1" fill="#60676e" d="M 408.5,786.5 C 437.73,782.544 460.563,792.544 477,816.5C 489.667,841.167 489.667,865.833 477,890.5C 460.576,914.616 437.743,924.45 408.5,920C 374.03,911.352 356.364,889.185 355.5,853.5C 356.559,817.797 374.226,795.464 408.5,786.5 Z M 412.5,807.5 C 439.975,805.492 456.808,817.825 463,844.5C 466.637,872.102 455.47,890.269 429.5,899C 401.607,901.445 384.773,888.945 379,861.5C 376.262,834.606 387.429,816.606 412.5,807.5 Z"/></g>
<g><path style="opacity:1" fill="#61686e" d="M 549.5,786.5 C 567.393,783.806 583.393,787.972 597.5,799C 600.762,801.592 603.262,804.759 605,808.5C 605.499,802.509 605.666,796.509 605.5,790.5C 612.5,790.5 619.5,790.5 626.5,790.5C 626.667,835.168 626.5,879.835 626,924.5C 621.371,952.462 605.204,969.295 577.5,975C 545.78,980.553 522.28,969.386 507,941.5C 506.51,940.207 506.343,938.873 506.5,937.5C 513.36,935.406 520.027,932.74 526.5,929.5C 536.288,949.562 552.288,957.728 574.5,954C 593.823,949.005 603.99,936.505 605,916.5C 605.667,910.5 605.667,904.5 605,898.5C 597.148,909.992 586.315,917.159 572.5,920C 534.36,923.003 510.86,905.837 502,868.5C 497.064,840.642 504.897,817.142 525.5,798C 532.932,792.782 540.932,788.949 549.5,786.5 Z M 555.5,807.5 C 580.783,805.217 596.949,816.217 604,840.5C 608.396,860.098 603.562,876.931 589.5,891C 579.487,898.999 568.154,901.665 555.5,899C 537.518,893.348 527.018,881.181 524,862.5C 521.159,843.685 526.659,827.852 540.5,815C 545.313,811.927 550.313,809.427 555.5,807.5 Z"/></g>
<g><path style="opacity:1" fill="#61686f" d="M 746.5,786.5 C 796.563,783.562 821.23,807.228 820.5,857.5C 786.833,857.5 753.167,857.5 719.5,857.5C 723.194,887.695 740.194,901.528 770.5,899C 775.518,897.773 780.185,895.773 784.5,893C 790.101,888.072 794.935,882.572 799,876.5C 805.719,879.443 812.219,882.776 818.5,886.5C 799.264,917.591 771.931,927.758 736.5,917C 712.674,906.212 699.508,887.712 697,861.5C 694.556,836.155 702.723,814.988 721.5,798C 729.171,792.509 737.504,788.675 746.5,786.5 Z M 750.5,807.5 C 767.07,804.74 780.57,809.74 791,822.5C 794.141,827.756 795.974,833.423 796.5,839.5C 771.5,839.5 746.5,839.5 721.5,839.5C 724.943,823.062 734.61,812.396 750.5,807.5 Z"/></g>
<g><path style="opacity:1" fill="#61686f" d="M 1118.5,786.5 C 1168.56,783.562 1193.23,807.228 1192.5,857.5C 1158.83,857.5 1125.17,857.5 1091.5,857.5C 1095.19,887.695 1112.19,901.528 1142.5,899C 1147.52,897.773 1152.18,895.773 1156.5,893C 1162.1,888.072 1166.93,882.572 1171,876.5C 1177.72,879.443 1184.22,882.776 1190.5,886.5C 1171.26,917.591 1143.93,927.758 1108.5,917C 1084.67,906.212 1071.51,887.712 1069,861.5C 1066.56,836.155 1074.72,814.988 1093.5,798C 1101.17,792.509 1109.5,788.675 1118.5,786.5 Z M 1122.5,807.5 C 1139.07,804.74 1152.57,809.74 1163,822.5C 1166.14,827.756 1167.97,833.423 1168.5,839.5C 1143.5,839.5 1118.5,839.5 1093.5,839.5C 1096.94,823.062 1106.61,812.396 1122.5,807.5 Z"/></g>
<g><path style="opacity:1" fill="#61686f" d="M 1380.5,786.5 C 1430.56,783.562 1455.23,807.228 1454.5,857.5C 1420.83,857.5 1387.17,857.5 1353.5,857.5C 1357.19,887.695 1374.19,901.528 1404.5,899C 1409.52,897.773 1414.18,895.773 1418.5,893C 1424.1,888.072 1428.93,882.572 1433,876.5C 1439.72,879.443 1446.22,882.776 1452.5,886.5C 1433.26,917.591 1405.93,927.758 1370.5,917C 1346.67,906.212 1333.51,887.712 1331,861.5C 1328.56,836.155 1336.72,814.988 1355.5,798C 1363.17,792.509 1371.5,788.675 1380.5,786.5 Z M 1384.5,807.5 C 1401.07,804.74 1414.57,809.74 1425,822.5C 1428.14,827.756 1429.97,833.423 1430.5,839.5C 1405.5,839.5 1380.5,839.5 1355.5,839.5C 1358.94,823.062 1368.61,812.396 1384.5,807.5 Z"/></g>
<g><path style="opacity:1" fill="#60676e" d="M 1570.5,786.5 C 1599.73,782.544 1622.56,792.544 1639,816.5C 1651.67,841.167 1651.67,865.833 1639,890.5C 1622.58,914.616 1599.74,924.45 1570.5,920C 1536.03,911.352 1518.36,889.185 1517.5,853.5C 1518.56,817.797 1536.23,795.464 1570.5,786.5 Z M 1574.5,807.5 C 1601.97,805.492 1618.81,817.825 1625,844.5C 1628.64,872.102 1617.47,890.269 1591.5,899C 1563.61,901.445 1546.77,888.945 1541,861.5C 1538.26,834.606 1549.43,816.606 1574.5,807.5 Z"/></g>
<g><path style="opacity:1" fill="#60666d" d="M 1721.5,786.5 C 1752.39,783.356 1774.55,795.69 1788,823.5C 1797.56,849.576 1794.89,874.243 1780,897.5C 1762.29,918.624 1740.13,925.457 1713.5,918C 1703.24,914.068 1695.07,907.568 1689,898.5C 1689.42,922.811 1689.58,947.144 1689.5,971.5C 1681.83,971.5 1674.17,971.5 1666.5,971.5C 1666.5,911.167 1666.5,850.833 1666.5,790.5C 1673.83,790.5 1681.17,790.5 1688.5,790.5C 1688.33,796.176 1688.5,801.843 1689,807.5C 1697.38,796.568 1708.22,789.568 1721.5,786.5 Z M 1721.5,807.5 C 1747.48,805.573 1763.65,817.239 1770,842.5C 1773.68,862.121 1768.18,878.621 1753.5,892C 1737.51,901.962 1721.51,901.962 1705.5,892C 1688.91,875.418 1684.41,855.918 1692,833.5C 1697.7,819.957 1707.53,811.29 1721.5,807.5 Z"/></g>
<g><path style="opacity:1" fill="#61686f" d="M 1862.5,786.5 C 1912.56,783.562 1937.23,807.228 1936.5,857.5C 1902.83,857.5 1869.17,857.5 1835.5,857.5C 1839.19,887.695 1856.19,901.528 1886.5,899C 1891.52,897.773 1896.18,895.773 1900.5,893C 1906.1,888.072 1910.93,882.572 1915,876.5C 1921.72,879.443 1928.22,882.776 1934.5,886.5C 1915.26,917.591 1887.93,927.758 1852.5,917C 1828.67,906.212 1815.51,887.712 1813,861.5C 1810.56,836.155 1818.72,814.988 1837.5,798C 1845.17,792.509 1853.5,788.675 1862.5,786.5 Z M 1866.5,807.5 C 1883.07,804.74 1896.57,809.74 1907,822.5C 1910.14,827.756 1911.97,833.423 1912.5,839.5C 1887.5,839.5 1862.5,839.5 1837.5,839.5C 1840.94,823.062 1850.61,812.396 1866.5,807.5 Z"/></g>
<g><path style="opacity:1" fill="#5f666d" d="M 2007.5,786.5 C 2013.84,786.334 2020.18,786.5 2026.5,787C 2028.1,787.273 2029.6,787.773 2031,788.5C 2031.83,796.521 2031.66,804.521 2030.5,812.5C 2004.23,804.553 1987.73,813.887 1981,840.5C 1980.5,865.831 1980.33,891.164 1980.5,916.5C 1972.83,916.5 1965.17,916.5 1957.5,916.5C 1957.5,874.5 1957.5,832.5 1957.5,790.5C 1964.83,790.5 1972.17,790.5 1979.5,790.5C 1979.33,796.842 1979.5,803.175 1980,809.5C 1982.05,804.786 1984.88,800.619 1988.5,797C 1994.32,792.428 2000.65,788.928 2007.5,786.5 Z"/></g>
<g><path style="opacity:1" fill="#61686f" d="M 2646.5,786.5 C 2696.56,783.562 2721.23,807.228 2720.5,857.5C 2686.83,857.5 2653.17,857.5 2619.5,857.5C 2623.19,887.695 2640.19,901.528 2670.5,899C 2675.52,897.773 2680.18,895.773 2684.5,893C 2690.1,888.072 2694.93,882.572 2699,876.5C 2705.72,879.443 2712.22,882.776 2718.5,886.5C 2699.26,917.591 2671.93,927.758 2636.5,917C 2612.67,906.212 2599.51,887.712 2597,861.5C 2594.56,836.155 2602.72,814.988 2621.5,798C 2629.17,792.509 2637.5,788.675 2646.5,786.5 Z M 2650.5,807.5 C 2667.07,804.74 2680.57,809.74 2691,822.5C 2694.14,827.756 2695.97,833.423 2696.5,839.5C 2671.5,839.5 2646.5,839.5 2621.5,839.5C 2624.94,823.062 2634.61,812.396 2650.5,807.5 Z"/></g>
<g><path style="opacity:1" fill="#5f666c" d="M 2793.5,786.5 C 2812.46,783.043 2828.63,788.043 2842,801.5C 2848.24,810.105 2851.57,819.772 2852,830.5C 2852.5,859.165 2852.67,887.831 2852.5,916.5C 2844.83,916.5 2837.17,916.5 2829.5,916.5C 2829.97,886.45 2829.47,856.45 2828,826.5C 2823.14,812.998 2813.48,806.664 2799,807.5C 2781.12,808.702 2769.79,818.035 2765,835.5C 2763.54,862.457 2763.04,889.457 2763.5,916.5C 2755.83,916.5 2748.17,916.5 2740.5,916.5C 2740.5,874.5 2740.5,832.5 2740.5,790.5C 2747.83,790.5 2755.17,790.5 2762.5,790.5C 2762.33,796.176 2762.5,801.843 2763,807.5C 2770.62,796.699 2780.79,789.699 2793.5,786.5 Z"/></g>
<g><path style="opacity:1" fill="#60676d" d="M 3564.5,786.5 C 3585.93,783.142 3604.43,788.809 3620,803.5C 3622.37,807.036 3624.53,810.703 3626.5,814.5C 3620.62,818.271 3614.29,821.271 3607.5,823.5C 3598.06,809.172 3584.73,803.672 3567.5,807C 3559.99,808.655 3554.49,812.821 3551,819.5C 3549.77,825.877 3551.94,830.71 3557.5,834C 3572.64,839.286 3587.98,843.952 3603.5,848C 3626.86,858.552 3633.69,875.719 3624,899.5C 3616.99,909.592 3607.49,916.092 3595.5,919C 3569.96,925.37 3548.46,918.87 3531,899.5C 3528.23,894.961 3525.73,890.294 3523.5,885.5C 3529.67,881.83 3536.17,878.83 3543,876.5C 3553.86,897.512 3570.7,904.679 3593.5,898C 3605.62,892.939 3608.46,884.772 3602,873.5C 3597.14,869.488 3591.64,866.654 3585.5,865C 3572.54,862.262 3559.88,858.595 3547.5,854C 3527.08,842.15 3522.24,825.65 3533,804.5C 3541.35,794.742 3551.85,788.742 3564.5,786.5 Z"/></g>
<g><path style="opacity:1" fill="#60676d" d="M 1196.5,790.5 C 1204.86,790.169 1213.19,790.502 1221.5,791.5C 1233.97,824.255 1246.64,856.922 1259.5,889.5C 1272.61,856.954 1285.44,824.287 1298,791.5C 1306.11,790.185 1314.27,790.185 1322.5,791.5C 1305.2,833.085 1288.2,874.752 1271.5,916.5C 1263.25,916.816 1255.08,916.482 1247,915.5C 1230.15,873.812 1213.32,832.145 1196.5,790.5 Z"/></g>
<g><path style="opacity:1" fill="#5f666c" d="M 2409.5,916.5 C 2409.67,910.158 2409.5,903.825 2409,897.5C 2408.28,898.044 2407.78,898.711 2407.5,899.5C 2394.33,917.398 2376.67,924.231 2354.5,920C 2331.93,914.388 2320.09,899.888 2319,876.5C 2318.5,847.835 2318.33,819.169 2318.5,790.5C 2326.17,790.5 2333.83,790.5 2341.5,790.5C 2341.33,818.169 2341.5,845.835 2342,873.5C 2344.12,891.229 2354.12,899.896 2372,899.5C 2391.52,897.65 2403.19,886.984 2407,867.5C 2407.5,841.835 2407.67,816.169 2407.5,790.5C 2415.17,790.5 2422.83,790.5 2430.5,790.5C 2430.5,832.5 2430.5,874.5 2430.5,916.5C 2423.5,916.5 2416.5,916.5 2409.5,916.5 Z"/></g>
<g><path style="opacity:1" fill="#5f666c" d="M 3337.5,916.5 C 3337.67,910.158 3337.5,903.825 3337,897.5C 3336.28,898.044 3335.78,898.711 3335.5,899.5C 3322.33,917.398 3304.67,924.231 3282.5,920C 3259.93,914.388 3248.09,899.888 3247,876.5C 3246.5,847.835 3246.33,819.169 3246.5,790.5C 3254.17,790.5 3261.83,790.5 3269.5,790.5C 3269.33,818.169 3269.5,845.835 3270,873.5C 3272.12,891.229 3282.12,899.896 3300,899.5C 3319.52,897.65 3331.19,886.984 3335,867.5C 3335.5,841.835 3335.67,816.169 3335.5,790.5C 3343.17,790.5 3350.83,790.5 3358.5,790.5C 3358.5,832.5 3358.5,874.5 3358.5,916.5C 3351.5,916.5 3344.5,916.5 3337.5,916.5 Z"/></g>
<g><path style="opacity:0.251" fill="#181a1c" d="M 2296.5,897.5 C 2296.56,896.957 2296.89,896.624 2297.5,896.5C 2298.82,903.99 2298.82,911.323 2297.5,918.5C 2297.82,911.313 2297.49,904.313 2296.5,897.5 Z"/></g>
<g><path style="opacity:0.251" fill="#181a1c" d="M 2939.5,897.5 C 2939.56,896.957 2939.89,896.624 2940.5,896.5C 2941.82,903.99 2941.82,911.323 2940.5,918.5C 2940.82,911.313 2940.49,904.313 2939.5,897.5 Z"/></g>
<g><path style="opacity:0.251" fill="#191b1d" d="M 2409.5,916.5 C 2408.83,910.833 2408.17,905.167 2407.5,899.5C 2407.78,898.711 2408.28,898.044 2409,897.5C 2409.5,903.825 2409.67,910.158 2409.5,916.5 Z"/></g>
<g><path style="opacity:0.251" fill="#1a1c1e" d="M 2555.5,916.5 C 2554.83,910.833 2554.17,905.167 2553.5,899.5C 2553.78,898.711 2554.28,898.044 2555,897.5C 2555.5,903.825 2555.67,910.158 2555.5,916.5 Z"/></g>
<g><path style="opacity:0.251" fill="#191b1d" d="M 3337.5,916.5 C 3336.83,910.833 3336.17,905.167 3335.5,899.5C 3335.78,898.711 3336.28,898.044 3337,897.5C 3337.5,903.825 3337.67,910.158 3337.5,916.5 Z"/></g>
</svg>
